Coordinates
version=1
nRows=15
nColumns=19
inDegrees=yes

Units are S.I. units (second, meters, Newtons, ...)
If the header above contains a line with 'inDegrees', this indicates whether rotational values are in degrees (yes) or radians (no).

endheader
time	pelvis_tilt	pelvis_list	pelvis_rotation	pelvis_tx	pelvis_ty	pelvis_tz	hip_flexion_r	hip_adduction_r	hip_rotation_r	knee_angle_r	knee_angle_r_beta	ankle_angle_r	hip_flexion_l	hip_adduction_l	hip_rotation_l	knee_angle_l	knee_angle_l_beta	ankle_angle_l
     15.45333333	     -2.00496340	     -6.29485525	     -3.71415050	      2.23896559	      0.98663726	      1.02964230	     20.10484755	      9.50025404	    -10.46114523	     13.04341529	      0.22765054	      4.16111822	     -7.24364494	    -10.42399810	    -13.83015301	     46.64259547	      0.81406686	    -16.02156766
     15.46000000	     -1.30814130	     -6.93757154	     -3.97153405	      2.23925863	      0.98402436	      1.03068085	     19.55689547	     10.06825993	    -10.95186303	     14.85806864	      0.25932222	      4.15620785	     -7.10232392	    -11.34206020	    -13.58162763	     49.49745990	      0.86389365	    -15.06774514
     15.46666667	     -0.46348981	     -7.56738182	     -4.27927913	      2.23943384	      0.98118704	      1.03164572	     18.89341429	     10.56902282	    -11.36897300	     16.95613093	      0.29594031	      4.28180961	     -7.10385351	    -12.19040703	    -13.35208798	     52.34446476	      0.91358326	    -13.80077325
     15.47333333	     -0.35405977	     -7.95070287	     -4.47703034	      2.23926451	      0.97705614	      1.03239097	     19.33033408	     10.65884145	    -12.16559494	     19.75200060	      0.34473744	      4.72991020	     -5.98132837	    -12.83312142	    -12.71699611	     55.49357954	      0.96854568	    -12.55744624
     15.48000000	      0.61328285	     -8.55172249	     -4.83848208	      2.23919098	      0.97371997	      1.03322518	     18.59879137	     11.03881295	    -12.44237662	     22.26721486	      0.38863621	      5.34026268	     -6.01963954	    -13.65923557	    -12.60666700	     58.34190668	      1.01825836	    -11.24176210
     15.48666667	      0.80507435	     -8.80206869	     -5.20373430	      2.23873273	      0.96921615	      1.03398329	     18.93240122	     11.00531048	    -12.73842464	     25.25230429	      0.44073585	      6.28394189	     -4.92739325	    -14.11215437	    -12.12207834	     61.37922425	      1.07126956	     -9.94236023
     15.49333333	      1.35638307	     -9.13341859	     -5.60392298	      2.23819907	      0.96509012	      1.03472399	     18.72293036	     11.10289172	    -12.72568940	     28.01301039	      0.48891926	      7.45447399	     -4.27290362	    -14.64885915	    -11.84185996	     64.24140177	      1.12122398	     -8.69563867
     15.50000000	      1.79689953	     -9.42356764	     -6.03430039	      2.23747405	      0.96084366	      1.03546725	     18.56882455	     11.21613991	    -12.50612034	     30.66913447	      0.53527738	      8.84551267	     -3.42030346	    -15.16960975	    -11.57095501	     67.04823061	      1.17021238	     -7.52903902
     15.50666667	      2.15921176	     -9.64829293	     -6.48686939	      2.23654101	      0.95664352	      1.03621952	     18.41693391	     11.32591892	    -12.09142579	     33.16708957	      0.57887492	     10.41178394	     -2.40461072	    -15.62098415	    -11.26958527	     69.74802050	      1.21733260	     -6.46491921
     15.51333333	      2.39987007	     -9.82039228	     -6.96108368	      2.23544187	      0.95253013	      1.03700814	     18.28693777	     11.45985443	    -11.51929829	     35.45784792	      0.61885619	     12.11106620	     -1.18674563	    -16.06334037	    -10.98466935	     72.32842275	      1.26236912	     -5.51063486
     15.52000000	      2.98220339	    -10.10427580	     -7.30896670	      2.23431195	      0.94915376	      1.03763446	     17.56418982	     11.70076236	    -10.93791577	     37.34699496	      0.65182803	     13.87959552	     -0.33150087	    -16.60227582	    -10.67586444	     74.65863408	      1.30303898	     -4.62930294
     15.52666667	      2.56739332	    -10.02188992	     -7.75820229	      2.23283162	      0.94496329	      1.03838272	     17.96443954	     11.71489287	    -10.24287865	     39.23692813	      0.68481358	     15.60019849	      1.88697103	    -16.83784594	    -10.14054057	     77.03533475	      1.34452023	     -3.84531989
     15.53333333	      2.97797003	    -10.16444453	     -8.04286286	      2.23154116	      0.94224892	      1.03893472	     17.12716070	     11.87786144	     -9.59197916	     40.56575307	      0.70800595	     17.33539512	      3.06478152	    -17.26136087	     -9.76080942	     78.96170130	      1.37814167	     -3.07474283
     15.54000000	      2.50833962	    -10.04169161	     -8.31883998	      2.23002545	      0.93898419	      1.03941736	     17.23150687	     11.85653775	     -9.02101255	     41.78987529	      0.72937092	     18.83393248	      5.48191665	    -17.45098653	     -9.07574211	     80.88184326	      1.41165447	     -2.42936748
     15.54666667	      2.90492314	    -10.06374027	     -8.49719499	      2.22874469	      0.93734318	      1.03979281	     16.07106645	     11.88888241	     -8.39301228	     42.49770769	      0.74172492	     20.27945107	      6.74512686	    -17.74597293	     -8.69376529	     82.27758804	      1.43601481	     -1.80964491
